<svg width="81" height="84" viewBox="0 0 81 84" fill="none" xmlns="http://www.w3.org/2000/svg">
<g filter="url(#filter0_d_3622_21416)">
<rect x="1.25671" y="15.3398" width="64.9405" height="64.9405" rx="32.4702" transform="rotate(-13.6627 1.25671 15.3398)" fill="white"/>
<path opacity="0.4438" d="M51.891 58.4975C51.891 59.7157 46.7828 60.7274 40.4593 60.7274C34.1563 60.7274 29.0275 59.7363 29.0275 58.4975C29.0275 57.2793 34.1357 56.2676 40.4593 56.2676C46.7828 56.2882 51.891 57.2793 51.891 58.4975Z" fill="url(#paint0_radial_3622_21416)"/>
<path fill-rule="evenodd" clip-rule="evenodd" d="M49.3659 26.4453C48.9742 24.6997 46.4992 24.7123 46.1231 26.4594L46.0856 26.6336C45.6863 28.4886 44.2274 29.8987 42.4117 30.2199C40.61 30.5387 40.61 33.1393 42.4117 33.4581C44.2274 33.7793 45.6863 35.1894 46.0856 37.0444L46.1231 37.2186C46.4992 38.9657 48.9742 38.9783 49.3659 37.2327L49.4113 37.0297C49.826 35.1815 51.2867 33.7817 53.0996 33.4609C54.9045 33.1416 54.9045 30.5364 53.0996 30.2171C51.2867 29.8964 49.826 28.4965 49.4113 26.6483L49.3659 26.4453ZM26.3282 27.5023C26.3282 26.347 27.2648 25.4104 28.4201 25.4104H37.0936C38.2488 25.4104 39.1854 26.347 39.1854 27.5023V36.1757C39.1854 37.331 38.2488 38.2676 37.0936 38.2676H28.4201C27.2648 38.2676 26.3282 37.331 26.3282 36.1757V27.5023ZM28.4201 40.4104C27.2648 40.4104 26.3282 41.347 26.3282 42.5023V51.1757C26.3282 52.3309 27.2648 53.2676 28.4201 53.2676H37.0936C38.2488 53.2676 39.1854 52.3309 39.1854 51.1757V42.5023C39.1854 41.347 38.2488 40.4104 37.0936 40.4104H28.4201ZM41.3282 42.5023C41.3282 41.347 42.2648 40.4104 43.4201 40.4104H52.0935C53.2487 40.4104 54.1854 41.347 54.1854 42.5023V51.1757C54.1854 52.3309 53.2487 53.2676 52.0935 53.2676H43.4201C42.2648 53.2676 41.3282 52.3309 41.3282 51.1757V42.5023Z" fill="url(#paint1_linear_3622_21416)"/>
</g>
<defs>
<filter id="filter0_d_3622_21416" x="-6.74329" y="-4" width="94.4421" height="94.4434" filterUnits="userSpaceOnUse" color-interpolation-filters="sRGB">
<feFlood flood-opacity="0" result="BackgroundImageFix"/>
<feColorMatrix in="SourceAlpha" type="matrix" values="0 0 0 0 0 0 0 0 0 0 0 0 0 0 0 0 0 0 127 0" result="hardAlpha"/>
<feOffset dy="4"/>
<feGaussianBlur stdDeviation="4"/>
<feComposite in2="hardAlpha" operator="out"/>
<feColorMatrix type="matrix" values="0 0 0 0 0.556863 0 0 0 0 0.552941 0 0 0 0 0.815686 0 0 0 0.16 0"/>
<feBlend mode="normal" in2="BackgroundImageFix" result="effect1_dropShadow_3622_21416"/>
<feBlend mode="normal" in="SourceGraphic" in2="effect1_dropShadow_3622_21416" result="shape"/>
</filter>
<radialGradient id="paint0_radial_3622_21416" cx="0" cy="0" r="1" gradientUnits="userSpaceOnUse" gradientTransform="translate(40.4592 58.4974) rotate(-90) scale(2.22046 9.73864)">
<stop stop-color="#B8B8B8" stop-opacity="0.498"/>
<stop offset="1" stop-color="#7F7F7F" stop-opacity="0"/>
</radialGradient>
<linearGradient id="paint1_linear_3622_21416" x1="52.6318" y1="37.4634" x2="26.7568" y2="37.4634" gradientUnits="userSpaceOnUse">
<stop offset="0.480769" stop-color="#FFDD55"/>
<stop offset="0.480869" stop-color="#4381B3"/>
</linearGradient>
</defs>
</svg>
