<svg width="90" height="90" viewBox="0 0 90 90" fill="none" xmlns="http://www.w3.org/2000/svg">
<g filter="url(#filter0_d_3632_24860)">
<rect y="34.8109" width="64.9405" height="64.9405" rx="32.4702" transform="rotate(-32.4146 0 34.8109)" fill="white"/>
<g clip-path="url(#clip0_3632_24860)">
<path d="M43.8126 42.5482C41.8582 43.2157 40.2479 44.6306 39.3344 46.483C38.421 48.3354 38.279 50.4742 38.9394 52.4311L40.3056 56.4555C40.366 56.6334 40.4946 56.78 40.6631 56.8631C40.8316 56.9462 41.0262 56.959 41.2041 56.8986L43.6321 56.0743C43.7165 56.0453 43.8087 56.0493 43.8903 56.0854C43.9719 56.1215 44.0369 56.187 44.0722 56.2689L47.0987 63.2006C47.1682 63.3609 47.2956 63.4891 47.4554 63.5596C47.6152 63.6302 47.7958 63.6378 47.961 63.5811L53.3269 61.7594C53.4959 61.7065 53.6384 61.5909 53.725 61.4363C53.8116 61.2817 53.8358 61.0999 53.7927 60.9281L52.036 53.5503C52.0113 53.4661 52.0201 53.3756 52.0606 53.2977C52.1011 53.2198 52.1701 53.1606 52.2532 53.1325L54.6142 52.331C54.7921 52.2706 54.9387 52.142 55.0218 51.9735C55.1049 51.805 55.1176 51.6104 55.0572 51.4325L53.691 47.4081C53.0239 45.4549 51.6091 43.8461 49.757 42.9349C47.905 42.0238 45.7671 41.8847 43.8126 42.5482ZM47.5285 50.1884C47.6191 50.4553 47.6 50.7472 47.4753 50.9999C47.3507 51.2526 47.1308 51.4455 46.864 51.5361C46.5971 51.6267 46.3052 51.6076 46.0525 51.4829C45.7998 51.3583 45.6069 51.1384 45.5163 50.8715L43.7174 45.5727C43.6268 45.3059 43.6459 45.014 43.7705 44.7613C43.8952 44.5085 44.1151 44.3157 44.3819 44.2251C44.6488 44.1345 44.9406 44.1536 45.1934 44.2782C45.4461 44.4029 45.639 44.6228 45.7296 44.8896L47.5285 50.1884Z" fill="url(#paint0_linear_3632_24860)"/>
<path d="M43.4211 41.3951C44.5029 41.0307 45.4523 40.3535 46.1489 39.449C46.8455 38.5446 47.2579 37.4538 47.3339 36.3147C47.41 35.1757 47.1462 34.0397 46.5759 33.0507C46.0057 32.0618 45.1548 31.2643 44.1309 30.7595C43.107 30.2546 41.9563 30.065 40.8246 30.2147C39.6929 30.3645 38.6311 30.8468 37.7738 31.6006C36.9164 32.3544 36.3022 33.3457 36.0088 34.4489C35.7154 35.5521 35.7561 36.7176 36.1257 37.7977C36.6193 39.2399 37.6638 40.4279 39.0309 41.1021C40.398 41.7762 41.9765 41.8815 43.4211 41.3951ZM38.6685 35.8573C38.6674 35.805 38.6789 35.7532 38.7021 35.7062C38.7252 35.6593 38.7593 35.6187 38.8014 35.5877C38.8392 35.5531 38.8837 35.5267 38.9322 35.5102C38.9807 35.4937 39.0321 35.4876 39.0832 35.4921C40.3572 35.8077 41.694 35.7631 42.9442 35.3632C43.2724 35.2522 43.5908 35.1141 43.8961 34.9503C43.9435 34.9192 43.9982 34.9011 44.0547 34.8976C44.1113 34.8942 44.1677 34.9055 44.2186 34.9306C44.2666 34.949 44.31 34.9777 44.3458 35.0147C44.3816 35.0516 44.4089 35.0959 44.4258 35.1444C44.5479 35.5036 44.5967 35.8836 44.5692 36.2619C44.5417 36.6403 44.4385 37.0093 44.2657 37.347C44.0929 37.6847 43.8541 37.9843 43.5634 38.2279C43.2726 38.4716 42.9359 38.6544 42.5732 38.7655C42.203 38.8953 41.8105 38.9495 41.419 38.9248C41.0274 38.9002 40.6448 38.7972 40.2938 38.622C39.9428 38.4469 39.6304 38.203 39.3753 37.905C39.1202 37.6069 38.9275 37.2607 38.8086 36.8869C38.6951 36.5561 38.6476 36.2063 38.6685 35.8573Z" fill="url(#paint1_linear_3632_24860)"/>
<path d="M38.3417 47.2342C38.3516 47.1708 38.346 47.106 38.3254 47.0452C38.3048 46.9845 38.2697 46.9296 38.2233 46.8854C34.7355 41.5915 34.7752 41.4882 33.5715 40.9393C33.5148 40.9153 33.4538 40.9031 33.3921 40.9034C33.3305 40.9037 33.2696 40.9166 33.2132 40.9413C33.1554 40.9688 33.1046 41.009 33.0645 41.0589C33.0245 41.1087 32.9962 41.167 32.9818 41.2293L32.3113 43.9255C32.2968 43.9956 32.2642 44.0606 32.2168 44.1143C32.1694 44.1679 32.1088 44.2082 32.041 44.2312C31.9733 44.2542 31.9007 44.2591 31.8304 44.2454C31.7602 44.2318 31.6947 44.2 31.6405 44.1532L29.5431 42.3818C29.4947 42.3438 29.4392 42.316 29.3798 42.3002C29.3204 42.2843 29.2584 42.2807 29.1976 42.2896C29.123 42.2949 29.051 42.3199 28.9891 42.3619C28.9272 42.4039 28.8775 42.4616 28.845 42.529C28.1975 43.7063 28.301 43.7909 28.6672 50.0698C28.6721 50.1344 28.6913 50.1972 28.7234 50.2536C28.7555 50.3099 28.7996 50.3585 28.8527 50.3958C28.9077 50.4423 28.9732 50.4746 29.0436 50.4899C29.114 50.5051 29.1871 50.5028 29.2564 50.4831L30.7186 49.9867C30.8765 49.9302 31.0494 49.9316 31.2064 49.9906C31.3634 50.0496 31.4944 50.1625 31.576 50.309L33.7724 54.5752C33.8231 54.6572 33.8994 54.7202 33.9895 54.7545C34.0795 54.7888 34.1784 54.7925 34.2707 54.7651L36.6854 53.9454C36.7768 53.913 36.8544 53.8503 36.9053 53.7677C36.9562 53.6851 36.9773 53.5876 36.9651 53.4913L36.1236 48.7652C36.0966 48.6013 36.1292 48.4332 36.2156 48.2913C36.3019 48.1495 36.4363 48.0433 36.5942 47.992L38.0832 47.4865C38.1427 47.4669 38.1969 47.434 38.2417 47.3902C38.2865 47.3465 38.3207 47.2931 38.3417 47.2342Z" fill="url(#paint2_linear_3632_24860)"/>
<path d="M26.4227 38.7427C26.7247 39.6321 27.3676 40.3652 28.2101 40.7806C29.0525 41.196 30.0255 41.2597 30.9149 40.9578C31.8044 40.6558 32.5375 40.0129 32.9529 39.1704C33.3683 38.328 33.432 37.355 33.1301 36.4656C32.8281 35.5761 32.1852 34.843 31.3427 34.4276C30.5003 34.0122 29.5273 33.9485 28.6379 34.2504C27.7484 34.5524 27.0153 35.1953 26.5999 36.0378C26.1845 36.8802 26.1208 37.8532 26.4227 38.7427Z" fill="url(#paint3_linear_3632_24860)"/>
<path d="M60.4112 39.3515C56.8609 34.0938 56.8915 33.9637 55.6792 33.4776C55.6229 33.4518 55.5617 33.4386 55.4998 33.439C55.4379 33.4393 55.3768 33.4532 55.3208 33.4796C55.2672 33.5096 55.2202 33.5502 55.1827 33.5989C55.1453 33.6477 55.1181 33.7035 55.1029 33.763L54.4321 36.4144C54.4197 36.4851 54.3877 36.5509 54.3396 36.6042C54.2916 36.6576 54.2295 36.6963 54.1605 36.7161C54.0948 36.7363 54.025 36.7397 53.9576 36.726C53.8903 36.7123 53.8274 36.6819 53.7748 36.6376L51.6819 34.8796C51.6325 34.8389 51.5746 34.8099 51.5125 34.7947C51.4503 34.7795 51.3856 34.7786 51.323 34.7919C51.2632 34.8068 51.207 34.8336 51.1579 34.8708C51.1088 34.9081 51.0679 34.9549 51.0375 35.0086C50.4168 36.1768 50.5112 36.2345 50.8865 42.5402C50.8766 42.6036 50.8822 42.6684 50.9028 42.7292C50.9234 42.7899 50.9585 42.8448 51.0049 42.889C51.063 42.9382 51.1335 42.9703 51.2087 42.9817C51.2839 42.9932 51.3608 42.9835 51.4309 42.9538L52.9199 42.4483C53.0764 42.3928 53.2477 42.3953 53.4025 42.4553C53.5574 42.5152 53.6856 42.6287 53.764 42.7752L55.9738 47.0368C56.0227 47.1206 56.0988 47.1851 56.1894 47.2197C56.2801 47.2542 56.3798 47.2567 56.4721 47.2267L58.8867 46.407C58.9767 46.3725 59.0528 46.3093 59.1034 46.2273C59.1539 46.1452 59.1761 46.0488 59.1665 45.9529L58.3115 41.2313C58.2871 41.0654 58.3223 40.8961 58.4109 40.7537C58.4996 40.6113 58.6359 40.5049 58.7956 40.4536L60.2578 39.9572C60.3188 39.9334 60.3741 39.897 60.4201 39.8504C60.4662 39.8039 60.5019 39.7482 60.5251 39.6869C60.5304 39.6262 60.523 39.565 60.5034 39.5072C60.4838 39.4495 60.4524 39.3965 60.4112 39.3515Z" fill="url(#paint4_linear_3632_24860)"/>
<path d="M48.5839 31.2192C48.8858 32.1087 49.5287 32.8417 50.3712 33.2572C51.2137 33.6726 52.1866 33.7363 53.0761 33.4343C53.9655 33.1324 54.6986 32.4895 55.114 31.647C55.5294 30.8045 55.5932 29.8316 55.2912 28.9421C54.9892 28.0527 54.3463 27.3196 53.5039 26.9042C52.6614 26.4888 51.6884 26.425 50.799 26.727C49.9095 27.029 49.1765 27.6719 48.7611 28.5143C48.3456 29.3568 48.2819 30.3298 48.5839 31.2192Z" fill="url(#paint5_linear_3632_24860)"/>
</g>
</g>
<defs>
<filter id="filter0_d_3632_24860" x="-8" y="-3.99969" width="105.633" height="105.633" filterUnits="userSpaceOnUse" color-interpolation-filters="sRGB">
<feFlood flood-opacity="0" result="BackgroundImageFix"/>
<feColorMatrix in="SourceAlpha" type="matrix" values="0 0 0 0 0 0 0 0 0 0 0 0 0 0 0 0 0 0 127 0" result="hardAlpha"/>
<feOffset dy="4"/>
<feGaussianBlur stdDeviation="4"/>
<feComposite in2="hardAlpha" operator="out"/>
<feColorMatrix type="matrix" values="0 0 0 0 0.556863 0 0 0 0 0.552941 0 0 0 0 0.815686 0 0 0 0.16 0"/>
<feBlend mode="normal" in2="BackgroundImageFix" result="effect1_dropShadow_3632_24860"/>
<feBlend mode="normal" in="SourceGraphic" in2="effect1_dropShadow_3632_24860" result="shape"/>
</filter>
<linearGradient id="paint0_linear_3632_24860" x1="43.8126" y1="42.5482" x2="50.644" y2="62.6705" gradientUnits="userSpaceOnUse">
<stop stop-color="#53A144"/>
<stop offset="1" stop-color="#3F873F"/>
</linearGradient>
<linearGradient id="paint1_linear_3632_24860" x1="39.7274" y1="30.471" x2="43.4345" y2="41.3905" gradientUnits="userSpaceOnUse">
<stop stop-color="#53A144"/>
<stop offset="1" stop-color="#3F873F"/>
</linearGradient>
<linearGradient id="paint2_linear_3632_24860" x1="31.1331" y1="41.6179" x2="35.4595" y2="54.3615" gradientUnits="userSpaceOnUse">
<stop stop-color="#53A144"/>
<stop offset="1" stop-color="#3F873F"/>
</linearGradient>
<linearGradient id="paint3_linear_3632_24860" x1="28.6379" y1="34.2504" x2="30.9149" y2="40.9578" gradientUnits="userSpaceOnUse">
<stop stop-color="#53A144"/>
<stop offset="1" stop-color="#3F873F"/>
</linearGradient>
<linearGradient id="paint4_linear_3632_24860" x1="53.3242" y1="34.1109" x2="57.6421" y2="46.8295" gradientUnits="userSpaceOnUse">
<stop stop-color="#53A144"/>
<stop offset="1" stop-color="#3F873F"/>
</linearGradient>
<linearGradient id="paint5_linear_3632_24860" x1="50.799" y1="26.727" x2="53.0761" y2="33.4343" gradientUnits="userSpaceOnUse">
<stop stop-color="#53A144"/>
<stop offset="1" stop-color="#3F873F"/>
</linearGradient>
<clipPath id="clip0_3632_24860">
<rect width="34" height="34" fill="white" transform="translate(23.6162 35.9398) rotate(-18.752)"/>
</clipPath>
</defs>
</svg>
