<svg width="81" height="84" viewBox="0 0 81 84" fill="none" xmlns="http://www.w3.org/2000/svg">
<g filter="url(#filter0_d_3632_24777)">
<rect x="1.25659" y="15.3398" width="64.9405" height="64.9405" rx="32.4702" transform="rotate(-13.6627 1.25659 15.3398)" fill="white"/>
<g clip-path="url(#clip0_3632_24777)">
<path d="M37.1718 30.6591L33.9726 36.3003C33.4397 37.2366 33.7347 38.4296 34.6437 39.0067C35.6075 39.6239 36.8905 39.3159 37.472 38.3325L40.8153 32.7019C41.0517 32.307 41.5592 32.1749 41.9589 32.4095C42.3586 32.6441 42.4859 33.1534 42.2513 33.5532L41.5467 34.7359L50.7183 38.2941L47.126 29.1447L47.092 29.158L46.8555 29.111L42.4524 28.239C41.5245 28.0552 40.5581 28.1438 39.6761 28.4901C38.6197 28.9049 37.735 29.6717 37.1718 30.6591ZM40.6438 36.2538L38.9032 39.1857C37.8448 40.9772 35.5083 41.5366 33.7482 40.4155C32.092 39.3598 31.5528 37.1888 32.5218 35.4828L35.2732 30.6383C34.6178 30.6216 33.9645 30.7382 33.349 30.9799C32.4361 31.3328 31.6558 31.9523 31.0928 32.7551L28.5169 36.4512L32.7791 47.3064L34.1457 46.7698L40.1619 49.0724C41.4523 49.5669 42.894 48.9225 43.3885 47.6321C43.539 47.2318 43.5832 46.8174 43.5345 46.4226L44.6552 46.8551C45.9407 47.3516 47.3892 46.7101 47.8856 45.4245C48.0105 45.1015 48.0619 44.7624 48.0514 44.4366C49.2389 44.6974 50.4669 44.0643 50.9182 42.8915C51.4146 41.6059 50.7732 40.1575 49.4876 39.661L40.6438 36.2538ZM23.0893 38.5822C22.6629 38.7497 22.4509 39.2356 22.6184 39.662L26.5761 49.7419C26.9128 50.5997 27.8779 51.0206 28.7357 50.6838L30.2864 50.0749C31.1442 49.7381 31.5651 48.773 31.2283 47.9153L26.9662 37.06L23.0893 38.5822ZM28.2933 47.2779C28.8902 47.0435 29.5169 47.5432 29.4215 48.1773C29.3771 48.4715 29.1792 48.7198 28.9022 48.8286C28.3053 49.063 27.6786 48.5633 27.774 47.9292C27.8184 47.6349 28.0163 47.3866 28.2933 47.2779ZM48.6767 28.5358L52.9388 39.391C53.2756 40.2488 54.2407 40.6697 55.0985 40.3329L56.6492 39.724C57.507 39.3873 57.9279 38.4222 57.5911 37.5644L53.6334 27.4845C53.466 27.0581 52.98 26.8462 52.5536 27.0136L48.6767 28.5358ZM54.1851 38.0068C53.9508 37.4099 54.4505 36.7832 55.0845 36.8786C55.3788 36.923 55.6271 37.1209 55.7359 37.3979C55.9702 37.9948 55.4706 38.6216 54.8365 38.5261C54.5422 38.4818 54.2939 38.2838 54.1851 38.0068Z" fill="#EE4C2C"/>
</g>
</g>
<defs>
<filter id="filter0_d_3632_24777" x="-6.74341" y="-4" width="94.4421" height="94.4434" filterUnits="userSpaceOnUse" color-interpolation-filters="sRGB">
<feFlood flood-opacity="0" result="BackgroundImageFix"/>
<feColorMatrix in="SourceAlpha" type="matrix" values="0 0 0 0 0 0 0 0 0 0 0 0 0 0 0 0 0 0 127 0" result="hardAlpha"/>
<feOffset dy="4"/>
<feGaussianBlur stdDeviation="4"/>
<feComposite in2="hardAlpha" operator="out"/>
<feColorMatrix type="matrix" values="0 0 0 0 0.556863 0 0 0 0 0.552941 0 0 0 0 0.815686 0 0 0 0.16 0"/>
<feBlend mode="normal" in2="BackgroundImageFix" result="effect1_dropShadow_3632_24777"/>
<feBlend mode="normal" in="SourceGraphic" in2="effect1_dropShadow_3632_24777" result="shape"/>
</filter>
<clipPath id="clip0_3632_24777">
<rect width="34" height="34" fill="white" transform="translate(18.2195 29.3887) rotate(-21.4366)"/>
</clipPath>
</defs>
</svg>
