<svg width="81" height="84" viewBox="0 0 81 84" fill="none" xmlns="http://www.w3.org/2000/svg">
<g filter="url(#filter0_d_3632_23158)">
<rect x="1.25659" y="15.3398" width="64.9405" height="64.9405" rx="32.4702" transform="rotate(-13.6627 1.25659 15.3398)" fill="white"/>
<path fill-rule="evenodd" clip-rule="evenodd" d="M47.7303 26.1833L48.1784 24.8393L45.4904 23.9434L45.0425 25.2873L41.3676 36.3116L40.9197 37.6556L43.6077 38.5516L44.0556 37.2077L47.7303 26.1833ZM39.4152 29.1872L40.4169 28.1854L38.4134 26.182L37.4118 27.1837L33.737 30.8585L32.7353 31.8602L33.737 32.8619L37.4118 36.5367L38.4134 37.5384L40.4169 35.535L39.4152 34.5332L36.7422 31.8602L39.4152 29.1872ZM31.9166 40.0056C28.138 39.3387 24.6733 42.2456 24.6733 46.0826V53.166H38.2791L53.0067 50.0655V48.916C53.0067 46.96 51.421 45.3743 49.465 45.3743H48.3876C48.0622 45.3743 47.7378 45.4086 47.4198 45.4767L39.5483 47.1636V47.1451H33.1733V45.0201H39.5483V41.3524L31.9166 40.0056ZM50.6852 26.182L51.6869 27.1837L55.3617 30.8585L56.3635 31.8602L55.3617 32.8619L51.6869 36.5367L50.6852 37.5384L48.6817 35.535L49.6835 34.5332L52.3566 31.8602L49.6835 29.1872L48.6817 28.1854L50.6852 26.182Z" fill="url(#paint0_linear_3632_23158)"/>
</g>
<defs>
<filter id="filter0_d_3632_23158" x="-6.74341" y="-4" width="94.4421" height="94.4434" filterUnits="userSpaceOnUse" color-interpolation-filters="sRGB">
<feFlood flood-opacity="0" result="BackgroundImageFix"/>
<feColorMatrix in="SourceAlpha" type="matrix" values="0 0 0 0 0 0 0 0 0 0 0 0 0 0 0 0 0 0 127 0" result="hardAlpha"/>
<feOffset dy="4"/>
<feGaussianBlur stdDeviation="4"/>
<feComposite in2="hardAlpha" operator="out"/>
<feColorMatrix type="matrix" values="0 0 0 0 0.556863 0 0 0 0 0.552941 0 0 0 0 0.815686 0 0 0 0.16 0"/>
<feBlend mode="normal" in2="BackgroundImageFix" result="effect1_dropShadow_3632_23158"/>
<feBlend mode="normal" in="SourceGraphic" in2="effect1_dropShadow_3632_23158" result="shape"/>
</filter>
<linearGradient id="paint0_linear_3632_23158" x1="24.2567" y1="39" x2="53.7567" y2="39" gradientUnits="userSpaceOnUse">
<stop stop-color="#FF7801"/>
<stop offset="1" stop-color="#FFA001"/>
</linearGradient>
</defs>
</svg>
