<svg width="81" height="84" viewBox="0 0 81 84" fill="none" xmlns="http://www.w3.org/2000/svg">
<g filter="url(#filter0_d_3632_24696)">
<rect x="1.25659" y="15.3398" width="64.9405" height="64.9405" rx="32.4702" transform="rotate(-13.6627 1.25659 15.3398)" fill="white"/>
<g clip-path="url(#clip0_3632_24696)">
<path d="M44.0534 39.5526C44.2247 39.3564 44.3192 39.1047 44.3192 38.8442C44.3192 38.5837 44.2247 38.3321 44.0534 38.1359L41.22 35.0476C41.1593 34.9821 41.1256 34.8961 41.1256 34.8067C41.1256 34.7174 41.1593 34.6314 41.22 34.5659L44.0534 31.4917C44.1764 31.2835 44.2248 31.0395 44.1904 30.8C44.1559 30.5606 44.0409 30.3401 43.8641 30.1749C43.6874 30.0097 43.4596 29.9098 43.2184 29.8917C42.9772 29.8735 42.737 29.9382 42.5375 30.0751L38.84 33.9992C38.6687 34.1954 38.5742 34.4471 38.5742 34.7076C38.5742 34.9681 38.6687 35.2197 38.84 35.4159L42.6225 39.4534C42.8072 39.6428 43.0551 39.7576 43.319 39.7759C43.5829 39.7942 43.8443 39.7147 44.0534 39.5526Z" fill="#3A3B45"/>
<path d="M46.3342 38.0508C46.2112 38.259 46.1628 38.503 46.1972 38.7425C46.2316 38.9819 46.3467 39.2024 46.5235 39.3676C46.7002 39.5328 46.928 39.6327 47.1692 39.6508C47.4104 39.669 47.6506 39.6043 47.8501 39.4675L51.6609 35.4583C51.8323 35.2621 51.9267 35.0104 51.9267 34.75C51.9267 34.4895 51.8323 34.2378 51.6609 34.0416L47.8784 29.9475C47.6792 29.7485 47.4091 29.6367 47.1276 29.6367C46.846 29.6367 46.5759 29.7485 46.3767 29.9475C46.2747 30.0441 46.1934 30.1605 46.1379 30.2896C46.0824 30.4187 46.0537 30.5578 46.0537 30.6983C46.0537 30.8388 46.0824 30.9779 46.1379 31.107C46.1934 31.2361 46.2747 31.3525 46.3767 31.4491L49.2101 34.5233C49.2708 34.5888 49.3045 34.6748 49.3045 34.7641C49.3045 34.8534 49.2708 34.9395 49.2101 35.005L46.3342 38.0508Z" fill="#3A3B45"/>
<path d="M56.4208 26.5195L53.0066 23.0912C52.4754 22.5643 51.7573 22.2689 51.0091 22.2695H34.5899C33.8385 22.2695 33.1178 22.568 32.5865 23.0994C32.0551 23.6307 31.7566 24.3514 31.7566 25.1029V37.4137C31.7595 37.5075 31.7945 37.5975 31.8558 37.6687L33.9808 39.7937C34.0303 39.8451 34.0942 39.8804 34.1642 39.8949C34.2341 39.9093 34.3068 39.9023 34.3726 39.8747C34.4385 39.8472 34.4945 39.8003 34.5333 39.7404C34.5721 39.6804 34.5918 39.6101 34.5899 39.5387V25.8112C34.5899 25.6233 34.6646 25.4432 34.7974 25.3103C34.9302 25.1775 35.1104 25.1029 35.2983 25.1029H50.7116C50.8045 25.1017 50.8966 25.1201 50.982 25.1567C51.0674 25.1932 51.1442 25.2473 51.2074 25.3154L54.2108 28.3187C54.2788 28.3819 54.3329 28.4587 54.3695 28.5441C54.4061 28.6295 54.4244 28.7216 54.4233 28.8145V47.7695C54.4233 47.9574 54.3486 48.1376 54.2158 48.2704C54.083 48.4032 53.9028 48.4779 53.7149 48.4779H42.9058C42.852 48.4789 42.7991 48.4917 42.7509 48.5154C42.7026 48.5391 42.6601 48.5731 42.6263 48.6149C42.5926 48.6568 42.5684 48.7055 42.5555 48.7577C42.5426 48.8099 42.5412 48.8643 42.5516 48.917C42.7074 49.512 42.9341 50.5462 43.0474 51.042C43.0683 51.1171 43.1125 51.1836 43.1736 51.232C43.2347 51.2803 43.3096 51.3081 43.3874 51.3112H54.4233C55.1747 51.3112 55.8954 51.0127 56.4267 50.4813C56.9581 49.95 57.2566 49.2293 57.2566 48.4779V28.517C57.2534 27.7668 56.9528 27.0484 56.4208 26.5195Z" fill="#FFAC03"/>
<path d="M39.0525 47.8682L29.7308 38.5465C29.0787 37.8794 28.2066 37.4715 27.2765 37.3985C26.3465 37.3256 25.4215 37.5925 24.6733 38.1499C24.2729 38.4802 23.9457 38.8902 23.7124 39.3538C23.4791 39.8174 23.3448 40.3246 23.3182 40.8429C23.2915 41.3612 23.373 41.8795 23.5576 42.3646C23.7421 42.8497 24.0256 43.2911 24.39 43.6607L33.7966 53.1665C33.8297 53.2008 33.8693 53.2281 33.9131 53.2467C33.9569 53.2653 34.004 53.2749 34.0516 53.2749C34.0993 53.2749 34.1464 53.2653 34.1902 53.2467C34.234 53.2281 34.2736 53.2008 34.3066 53.1665L39.0525 48.4207C39.0964 48.3892 39.1321 48.3478 39.1568 48.2997C39.1814 48.2517 39.1943 48.1985 39.1943 48.1445C39.1943 48.0905 39.1814 48.0372 39.1568 47.9892C39.1321 47.9412 39.0964 47.8997 39.0525 47.8682Z" fill="#FFCC00"/>
<path d="M40.1716 50.248L36.1908 54.2288C36.1462 54.2744 36.1147 54.3313 36.0997 54.3933C36.0848 54.4553 36.0868 54.5202 36.1057 54.5812C36.1245 54.6421 36.1595 54.6968 36.2069 54.7396C36.2543 54.7823 36.3124 54.8114 36.375 54.8238L40.8233 55.7163H40.965C41.1498 55.7174 41.3277 55.6463 41.4608 55.518C41.5427 55.4355 41.6035 55.3345 41.638 55.2235C41.6725 55.1125 41.6798 54.9949 41.6591 54.8805L40.7666 50.418C40.7523 50.3566 40.7217 50.3001 40.6782 50.2544C40.6347 50.2087 40.5798 50.1755 40.5191 50.1582C40.4584 50.1408 40.3942 50.14 40.3331 50.1558C40.2721 50.1716 40.2163 50.2034 40.1716 50.248Z" fill="#FFCC00"/>
</g>
</g>
<defs>
<filter id="filter0_d_3632_24696" x="-6.74341" y="-4" width="94.4421" height="94.4434" filterUnits="userSpaceOnUse" color-interpolation-filters="sRGB">
<feFlood flood-opacity="0" result="BackgroundImageFix"/>
<feColorMatrix in="SourceAlpha" type="matrix" values="0 0 0 0 0 0 0 0 0 0 0 0 0 0 0 0 0 0 127 0" result="hardAlpha"/>
<feOffset dy="4"/>
<feGaussianBlur stdDeviation="4"/>
<feComposite in2="hardAlpha" operator="out"/>
<feColorMatrix type="matrix" values="0 0 0 0 0.556863 0 0 0 0 0.552941 0 0 0 0 0.815686 0 0 0 0.16 0"/>
<feBlend mode="normal" in2="BackgroundImageFix" result="effect1_dropShadow_3632_24696"/>
<feBlend mode="normal" in="SourceGraphic" in2="effect1_dropShadow_3632_24696" result="shape"/>
</filter>
<clipPath id="clip0_3632_24696">
<rect width="34" height="34" fill="white" transform="translate(23.2566 22)"/>
</clipPath>
</defs>
</svg>
