<svg width="91" height="91" viewBox="0 0 91 91" fill="none" xmlns="http://www.w3.org/2000/svg">
<g filter="url(#filter0_d_3632_24627)">
<rect y="37.9316" width="64.9405" height="64.9405" rx="32.4702" transform="rotate(-35.7388 0 37.9316)" fill="white"/>
<g clip-path="url(#clip0_3632_24627)">
<path d="M51.4181 32.6743C50.9945 31.6297 50.1733 30.7963 49.1351 30.3572C48.097 29.9182 46.9269 29.9095 45.8824 30.3332L29.4723 36.9886C28.4278 37.4123 27.5944 38.2335 27.1553 39.2716C26.7163 40.3098 26.7076 41.4798 27.1312 42.5243L32.1894 54.996C32.613 56.0405 33.4343 56.874 34.4724 57.313C35.5106 57.7521 36.6806 57.7607 37.7251 57.3371L54.1352 50.6816C55.1797 50.258 56.0132 49.4368 56.4522 48.3986C56.8913 47.3605 56.8999 46.1904 56.4763 45.1459L51.4181 32.6743ZM39.2674 36.0735C39.3081 35.8358 39.4088 35.6124 39.56 35.4245C39.7111 35.2366 39.9078 35.0904 40.1313 34.9997C40.3548 34.9091 40.5977 34.877 40.8371 34.9065C41.0765 34.936 41.3044 35.0262 41.4991 35.1684C41.7064 35.3113 41.8672 35.5118 41.9618 35.7451C42.0565 35.9784 42.0807 36.2343 42.0316 36.4812C41.9909 36.7189 41.8902 36.9423 41.739 37.1302C41.5878 37.3181 41.3912 37.4644 41.1677 37.555C40.9441 37.6456 40.7012 37.6777 40.4618 37.6482C40.2225 37.6187 39.9946 37.5286 39.7998 37.3863C39.5926 37.2434 39.4317 37.0429 39.3371 36.8096C39.2425 36.5763 39.2182 36.3204 39.2674 36.0735ZM34.6726 37.9371C34.7132 37.6993 34.814 37.4759 34.9651 37.288C35.1163 37.1001 35.313 36.9539 35.5365 36.8632C35.76 36.7726 36.0029 36.7405 36.2423 36.77C36.4817 36.7995 36.7095 36.8897 36.9043 37.0319C37.1116 37.1748 37.2724 37.3753 37.367 37.6086C37.4616 37.8419 37.4859 38.0978 37.4368 38.3447C37.3961 38.5824 37.2954 38.8058 37.1442 38.9938C36.993 39.1817 36.7963 39.3279 36.5728 39.4185C36.3493 39.5092 36.1064 39.5413 35.867 39.5117C35.6277 39.4822 35.3998 39.3921 35.205 39.2499C34.9978 39.1069 34.8369 38.9064 34.7423 38.6731C34.6477 38.4399 34.6234 38.184 34.6726 37.9371ZM30.0469 39.9507C30.0613 39.6949 30.1447 39.4479 30.2883 39.2358C30.432 39.0237 30.6304 38.8545 30.8625 38.7462C31.0947 38.638 31.3518 38.5947 31.6066 38.6209C31.8614 38.6472 32.1043 38.7421 32.3095 38.8954C32.5167 39.0384 32.6776 39.2389 32.7722 39.4722C32.8668 39.7054 32.8911 39.9613 32.8419 40.2082C32.8013 40.446 32.7006 40.6694 32.5494 40.8573C32.3982 41.0452 32.2015 41.1914 31.978 41.2821C31.7545 41.3727 31.5116 41.4048 31.2722 41.3753C31.0328 41.3458 30.805 41.2556 30.6102 41.1134C30.4075 40.9656 30.2477 40.7666 30.147 40.5369C30.077 40.3495 30.043 40.1506 30.0469 39.9507ZM53.8507 46.2108C53.9919 46.5589 53.989 46.949 53.8427 47.295C53.6963 47.6411 53.4185 47.9148 53.0703 48.056L36.6603 54.7115C36.3121 54.8527 35.9221 54.8498 35.576 54.7035C35.23 54.5571 34.9562 54.2793 34.815 53.9311L30.9548 44.4133C30.9195 44.3262 30.9203 44.2287 30.9568 44.1422C30.9934 44.0557 31.0629 43.9873 31.1499 43.952L49.5292 36.4979C49.6162 36.4625 49.7137 36.4633 49.8003 36.4999C49.8868 36.5364 49.9552 36.6059 49.9905 36.6929L53.8507 46.2108Z" fill="#1D63ED"/>
<path d="M44.1835 60.068L60.5936 53.4125C61.6381 52.9889 62.4716 52.1677 62.9106 51.1295C63.3496 50.0914 63.3583 48.9213 62.9347 47.8768L56.8116 32.7795C56.6704 32.4314 56.3967 32.1535 56.0506 32.0072C55.7046 31.8608 55.3146 31.858 54.9664 31.9992C54.6182 32.1404 54.3404 32.4141 54.194 32.7602C54.0477 33.1062 54.0448 33.4962 54.186 33.8444L60.309 48.9417C60.4503 49.2898 60.4474 49.6799 60.301 50.0259C60.1547 50.372 59.8769 50.6457 59.5287 50.7869L43.1186 57.4424C42.7705 57.5836 42.4926 57.8573 42.3463 58.2034C42.1999 58.5494 42.1971 58.9394 42.3383 59.2876C42.4795 59.6358 42.7532 59.9136 43.0993 60.06C43.4453 60.2063 43.8353 60.2092 44.1835 60.068Z" fill="#1D63ED"/>
</g>
</g>
<defs>
<filter id="filter0_d_3632_24627" x="-8" y="-4" width="106.643" height="106.643" filterUnits="userSpaceOnUse" color-interpolation-filters="sRGB">
<feFlood flood-opacity="0" result="BackgroundImageFix"/>
<feColorMatrix in="SourceAlpha" type="matrix" values="0 0 0 0 0 0 0 0 0 0 0 0 0 0 0 0 0 0 127 0" result="hardAlpha"/>
<feOffset dy="4"/>
<feGaussianBlur stdDeviation="4"/>
<feComposite in2="hardAlpha" operator="out"/>
<feColorMatrix type="matrix" values="0 0 0 0 0.556863 0 0 0 0 0.552941 0 0 0 0 0.815686 0 0 0 0.16 0"/>
<feBlend mode="normal" in2="BackgroundImageFix" result="effect1_dropShadow_3632_24627"/>
<feBlend mode="normal" in="SourceGraphic" in2="effect1_dropShadow_3632_24627" result="shape"/>
</filter>
<clipPath id="clip0_3632_24627">
<rect width="34" height="34" fill="white" transform="translate(22.8901 35.8359) rotate(-22.0761)"/>
</clipPath>
</defs>
</svg>
