<svg width="81" height="84" viewBox="0 0 81 84" fill="none" xmlns="http://www.w3.org/2000/svg">
<g filter="url(#filter0_d_3629_23115)">
<rect x="1.25659" y="15.3398" width="64.9405" height="64.9405" rx="32.4702" transform="rotate(-13.6627 1.25659 15.3398)" fill="white"/>
<g clip-path="url(#clip0_3629_23115)">
<path d="M37.4233 54.2008C36.8752 53.9742 36.3894 53.6196 36.0066 53.1667H27.5066C27.1309 53.1667 26.7705 53.0174 26.5049 52.7517C26.2392 52.4861 26.0899 52.1257 26.0899 51.75V29.4375C26.0899 29.3436 26.1272 29.2535 26.1937 29.1871C26.2601 29.1206 26.3502 29.0833 26.4441 29.0833H54.0691C54.163 29.0833 54.2531 29.1206 54.3195 29.1871C54.3859 29.2535 54.4233 29.3436 54.4233 29.4375V36.7617L57.2566 37.9658V26.25C57.2566 25.1228 56.8088 24.0418 56.0118 23.2448C55.2148 22.4478 54.1338 22 53.0066 22H27.5066C26.3794 22 25.2984 22.4478 24.5014 23.2448C23.7044 24.0418 23.2566 25.1228 23.2566 26.25V51.75C23.2566 52.8772 23.7044 53.9582 24.5014 54.7552C25.2984 55.5522 26.3794 56 27.5066 56H41.6733L37.4233 54.2008ZM38.1316 24.125C38.5073 24.125 38.8676 24.2743 39.1333 24.5399C39.399 24.8056 39.5483 25.1659 39.5483 25.5417C39.5483 25.9174 39.399 26.2777 39.1333 26.5434C38.8676 26.8091 38.5073 26.9583 38.1316 26.9583C37.7559 26.9583 37.3955 26.8091 37.1299 26.5434C36.8642 26.2777 36.7149 25.9174 36.7149 25.5417C36.7149 25.1659 36.8642 24.8056 37.1299 24.5399C37.3955 24.2743 37.7559 24.125 38.1316 24.125ZM33.1733 24.125C33.549 24.125 33.9093 24.2743 34.175 24.5399C34.4407 24.8056 34.5899 25.1659 34.5899 25.5417C34.5899 25.9174 34.4407 26.2777 34.175 26.5434C33.9093 26.8091 33.549 26.9583 33.1733 26.9583C32.7975 26.9583 32.4372 26.8091 32.1715 26.5434C31.9058 26.2777 31.7566 25.9174 31.7566 25.5417C31.7566 25.1659 31.9058 24.8056 32.1715 24.5399C32.4372 24.2743 32.7975 24.125 33.1733 24.125ZM28.2149 24.125C28.5906 24.125 28.951 24.2743 29.2167 24.5399C29.4823 24.8056 29.6316 25.1659 29.6316 25.5417C29.6316 25.9174 29.4823 26.2777 29.2167 26.5434C28.951 26.8091 28.5906 26.9583 28.2149 26.9583C27.8392 26.9583 27.4789 26.8091 27.2132 26.5434C26.9475 26.2777 26.7983 25.9174 26.7983 25.5417C26.7983 25.1659 26.9475 24.8056 27.2132 24.5399C27.4789 24.2743 27.8392 24.125 28.2149 24.125Z" fill="#FF9100"/>
<path d="M57.2567 41.2243C57.2564 40.9462 57.1744 40.6744 57.0207 40.4426C56.867 40.2108 56.6486 40.0294 56.3925 39.921L47.8925 36.2801C47.7177 36.2061 47.5298 36.168 47.34 36.168C47.1502 36.168 46.9623 36.2061 46.7875 36.2801L38.2875 39.921C38.0314 40.0294 37.813 40.2108 37.6593 40.4426C37.5056 40.6744 37.4236 40.9462 37.4233 41.2243V50.9426C37.4236 51.2207 37.5056 51.4926 37.6593 51.7244C37.813 51.9561 38.0314 52.1375 38.2875 52.246L46.7875 55.8868C46.9623 55.9608 47.1502 55.999 47.34 55.999C47.5298 55.999 47.7177 55.9608 47.8925 55.8868L56.3925 52.246C56.6486 52.1375 56.867 51.9561 57.0207 51.7244C57.1744 51.4926 57.2564 51.2207 57.2567 50.9426V41.2243ZM47.34 39.1276L52.2417 41.2243L47.34 43.3351L42.4383 41.2243L47.34 39.1276ZM40.2567 43.3776L45.9233 45.8001V52.4301L40.2567 50.0076V43.3776ZM48.7567 52.4301V45.8001L54.4233 43.3776V50.0076L48.7567 52.4301Z" fill="#DD2C00"/>
</g>
</g>
<defs>
<filter id="filter0_d_3629_23115" x="-6.74341" y="-4" width="94.4421" height="94.4434" filterUnits="userSpaceOnUse" color-interpolation-filters="sRGB">
<feFlood flood-opacity="0" result="BackgroundImageFix"/>
<feColorMatrix in="SourceAlpha" type="matrix" values="0 0 0 0 0 0 0 0 0 0 0 0 0 0 0 0 0 0 127 0" result="hardAlpha"/>
<feOffset dy="4"/>
<feGaussianBlur stdDeviation="4"/>
<feComposite in2="hardAlpha" operator="out"/>
<feColorMatrix type="matrix" values="0 0 0 0 0.556863 0 0 0 0 0.552941 0 0 0 0 0.815686 0 0 0 0.16 0"/>
<feBlend mode="normal" in2="BackgroundImageFix" result="effect1_dropShadow_3629_23115"/>
<feBlend mode="normal" in="SourceGraphic" in2="effect1_dropShadow_3629_23115" result="shape"/>
</filter>
<clipPath id="clip0_3629_23115">
<rect width="34" height="34" fill="white" transform="translate(23.2566 22)"/>
</clipPath>
</defs>
</svg>
