<svg width="81" height="84" viewBox="0 0 81 84" fill="none" xmlns="http://www.w3.org/2000/svg">
<g filter="url(#filter0_d_3622_21555)">
<rect x="1.25659" y="15.3398" width="64.9405" height="64.9405" rx="32.4702" transform="rotate(-13.6627 1.25659 15.3398)" fill="white"/>
<g clip-path="url(#clip0_3622_21555)">
<path fill-rule="evenodd" clip-rule="evenodd" d="M48.6799 38.6564C46.286 37.9431 44.8331 35.5828 45.1899 33.1818L47.857 33.9766C49.8935 34.5834 51.6153 33.7661 52.2626 31.5938C51.6204 33.7489 52.5933 35.3668 54.5974 35.9848C53.5819 38.1897 51.0738 39.3698 48.6799 38.6564ZM42.6286 31.6795C43.8575 27.5555 48.197 25.2085 52.3209 26.4374C56.445 27.6663 58.7919 32.0056 57.563 36.1297C56.3341 40.2537 51.9948 42.6007 47.8707 41.3718C43.7468 40.1429 41.3997 35.8035 42.6286 31.6795ZM34.5409 24.0957L33.1832 23.6912L31.5589 29.1424L28.8205 28.3264L28.4193 29.6727L31.2931 34.9861L36.6065 32.1123L37.0076 30.766L34.2742 29.9515L35.0895 27.2156L39.8413 28.6316L40.6504 25.9162L34.5409 24.0957ZM37.6507 47.9349C36.1887 50.8044 33.0823 52.4844 29.8806 52.1374L31.6644 46.1511L37.6507 47.9349ZM38.4599 45.2195C38.8069 42.0179 37.1267 38.9115 34.2574 37.4493L32.4735 43.4357L38.4599 45.2195ZM29.7582 42.6266L31.542 36.6402C28.3403 36.2933 25.2339 37.9734 23.7718 40.8428L29.7582 42.6266ZM22.9627 43.5581C22.6157 46.7599 24.2958 49.8662 27.1652 51.3283L28.9491 45.3419L22.9627 43.5581ZM46.263 54.2084L47.6207 54.613L49.245 49.1618L51.9834 49.9778L52.3846 48.6315L49.5109 43.3181L44.1974 46.1919L43.7963 47.5381L46.5297 48.3527L45.7144 51.0885L40.9626 49.6725L40.1535 52.3879L46.263 54.2084Z" fill="#00684A"/>
</g>
</g>
<defs>
<filter id="filter0_d_3622_21555" x="-6.74341" y="-4" width="94.4421" height="94.4434" filterUnits="userSpaceOnUse" color-interpolation-filters="sRGB">
<feFlood flood-opacity="0" result="BackgroundImageFix"/>
<feColorMatrix in="SourceAlpha" type="matrix" values="0 0 0 0 0 0 0 0 0 0 0 0 0 0 0 0 0 0 127 0" result="hardAlpha"/>
<feOffset dy="4"/>
<feGaussianBlur stdDeviation="4"/>
<feComposite in2="hardAlpha" operator="out"/>
<feColorMatrix type="matrix" values="0 0 0 0 0.556863 0 0 0 0 0.552941 0 0 0 0 0.815686 0 0 0 0.16 0"/>
<feBlend mode="normal" in2="BackgroundImageFix" result="effect1_dropShadow_3622_21555"/>
<feBlend mode="normal" in="SourceGraphic" in2="effect1_dropShadow_3622_21555" result="shape"/>
</filter>
<clipPath id="clip0_3622_21555">
<rect width="34" height="34" fill="white" transform="translate(28.9661 18) rotate(16.5931)"/>
</clipPath>
</defs>
</svg>
