<svg width="81" height="84" viewBox="0 0 81 84" fill="none" xmlns="http://www.w3.org/2000/svg">
<g filter="url(#filter0_d_3622_21517)">
<rect x="1.25659" y="15.3398" width="64.9405" height="64.9405" rx="32.4702" transform="rotate(-13.6627 1.25659 15.3398)" fill="white"/>
<g clip-path="url(#clip0_3622_21517)">
<path fill-rule="evenodd" clip-rule="evenodd" d="M54.4542 27.5462L53.916 28.7367C53.4934 28.5072 53.0548 28.2841 52.5994 28.0782C52.1442 27.8725 51.687 27.6905 51.2358 27.525L51.774 26.3345C52.0502 25.7234 51.7788 25.0041 51.1677 24.7278C50.5566 24.4516 49.8373 24.723 49.561 25.3341L48.8706 26.8613C47.7808 26.7988 46.7042 27.2185 45.946 28.0088L44.4602 27.3371C43.8491 27.0608 43.1297 27.3323 42.8535 27.9434C42.5772 28.5545 42.8487 29.2738 43.4597 29.55L44.641 30.0841C44.43 30.4791 44.225 30.8877 44.034 31.3101C43.8431 31.7326 43.6718 32.1564 43.5146 32.5757L42.3333 32.0416C41.7222 31.7654 41.0029 32.0368 40.7266 32.6479C40.4504 33.259 40.7218 33.9783 41.3329 34.2546L42.8187 34.9263C42.7261 36.0176 43.1224 37.1031 43.8892 37.88L43.1938 39.4181C42.9176 40.0292 43.189 40.7485 43.8001 41.0248C44.4112 41.301 45.1305 41.0296 45.4068 40.4185L45.9499 39.2172C46.3722 39.4467 46.8108 39.6697 47.266 39.8755C47.7214 40.0814 48.1786 40.2633 48.6301 40.4289L48.087 41.6302C47.8107 42.2413 48.0823 42.9607 48.6933 43.2369C49.3043 43.5131 50.0237 43.2418 50.3 42.6307L50.9954 41.0924C52.085 41.1547 53.1614 40.7351 53.9193 39.9447L55.3987 40.6135C56.0097 40.8897 56.7291 40.6184 57.0054 40.0073C57.2816 39.3962 57.0101 38.6768 56.3991 38.4006L55.2243 37.8695C55.4353 37.4745 55.6403 37.0659 55.8313 36.6435C56.0222 36.2211 56.1936 35.7972 56.3507 35.3779L57.5255 35.909C58.1365 36.1852 58.8559 35.9139 59.1322 35.3028C59.4085 34.6917 59.137 33.9723 58.526 33.6961L57.0466 33.0273C57.139 31.9362 56.7432 30.851 55.9766 30.0742L56.6671 28.5467C56.9434 27.9356 56.6719 27.2162 56.0609 26.94C55.4499 26.6638 54.7305 26.9351 54.4542 27.5462ZM37.829 34.5728C37.4733 33.5734 37.4889 32.4403 37.9605 31.3973C38.3604 30.5126 39.0258 29.8313 39.8199 29.4049C39.6372 28.6207 39.6751 27.7792 39.9705 26.9777C39.3614 26.2815 38.597 25.7015 37.699 25.2955C35.3906 24.2519 32.8009 24.6308 30.9147 26.0607C30.8987 26.2205 30.8568 26.3806 30.787 26.535C30.0455 28.1752 30.1137 29.6565 30.4682 30.8198C30.8413 32.0439 31.5017 32.8265 31.7793 33.037C32.4473 33.5435 32.5782 34.4956 32.0718 35.1636C31.5653 35.8316 30.6132 35.9625 29.9452 35.456C29.0681 34.791 28.0876 33.4219 27.5644 31.7048C27.3254 30.9207 27.1756 30.0451 27.1755 29.1058C25.1727 29.9954 23.4317 31.7358 22.4092 33.9975C21.4571 36.1035 21.2597 38.3585 21.7538 40.3353C23.5693 40.0412 25.5861 40.1196 27.1624 40.8348C27.9257 41.1813 28.2638 42.0809 27.9175 42.8441C27.5711 43.6076 26.6715 43.9458 25.9081 43.5993C24.7683 43.0822 22.7985 43.081 21.0841 43.5951C21.0736 46.4462 22.7069 49.1742 25.4729 50.4246C27.1083 51.164 28.8699 51.2648 30.4777 50.8328L37.829 34.5728ZM33.2436 52.084C33.9815 53.5759 35.2207 54.8315 36.8556 55.5706C39.8551 56.9266 43.2791 56.1348 45.4002 53.8472C44.5057 52.3669 43.2766 51.1076 42.1446 50.5977C41.3802 50.2535 41.0398 49.3546 41.3841 48.5903C41.7283 47.8261 42.6271 47.4855 43.3914 47.8298C44.9427 48.5287 46.3458 49.8821 47.4206 51.3974C49.0028 50.4314 50.3547 48.9149 51.2119 47.0188C51.4342 46.527 51.6157 46.026 51.7566 45.5215C50.5557 46.4275 48.9101 46.6665 47.4427 46.0031C46.5148 45.5836 45.8106 44.8721 45.3897 44.0264C44.4767 44.2691 43.4775 44.2104 42.5495 43.7909C40.4107 42.824 39.4608 40.3063 40.4277 38.1675L40.4308 38.1607C40.2657 37.8138 40.13 37.4534 40.0255 37.0834L33.2436 52.084Z" fill="#61DAFB"/>
</g>
</g>
<defs>
<filter id="filter0_d_3622_21517" x="-6.74341" y="-4" width="94.4421" height="94.4434" filterUnits="userSpaceOnUse" color-interpolation-filters="sRGB">
<feFlood flood-opacity="0" result="BackgroundImageFix"/>
<feColorMatrix in="SourceAlpha" type="matrix" values="0 0 0 0 0 0 0 0 0 0 0 0 0 0 0 0 0 0 127 0" result="hardAlpha"/>
<feOffset dy="4"/>
<feGaussianBlur stdDeviation="4"/>
<feComposite in2="hardAlpha" operator="out"/>
<feColorMatrix type="matrix" values="0 0 0 0 0.556863 0 0 0 0 0.552941 0 0 0 0 0.815686 0 0 0 0.16 0"/>
<feBlend mode="normal" in2="BackgroundImageFix" result="effect1_dropShadow_3622_21517"/>
<feBlend mode="normal" in="SourceGraphic" in2="effect1_dropShadow_3622_21517" result="shape"/>
</filter>
<clipPath id="clip0_3622_21517">
<rect width="34" height="34" fill="white" transform="translate(30.769 15.5059) rotate(24.3271)"/>
</clipPath>
</defs>
</svg>
