<svg width="81" height="84" viewBox="0 0 81 84" fill="none" xmlns="http://www.w3.org/2000/svg">
<g filter="url(#filter0_d_3622_23073)">
<rect x="1.25659" y="15.3398" width="64.9405" height="64.9405" rx="32.4702" transform="rotate(-13.6627 1.25659 15.3398)" fill="white"/>
<g clip-path="url(#clip0_3622_23073)">
<path d="M31.8291 40.8201C31.5689 40.9277 31.3621 41.1341 31.254 41.3942C31.146 41.6542 31.1455 41.9464 31.2528 42.2067C31.3604 42.4669 31.5669 42.6738 31.8269 42.7818C32.0869 42.8899 32.3792 42.8903 32.6395 42.783L37.2692 40.8717C37.5293 40.7641 37.7362 40.5576 37.8442 40.2976C37.9523 40.0376 37.9527 39.7453 37.8454 39.485L35.9341 34.8553C35.8201 34.6047 35.6133 34.4081 35.3573 34.307C35.1012 34.2058 34.8159 34.208 34.5614 34.3131C34.307 34.4182 34.1032 34.6179 33.9931 34.8702C33.883 35.1225 33.8751 35.4077 33.9711 35.6657L35.3396 38.9806C35.3586 39.0242 35.3686 39.0713 35.369 39.1189C35.3694 39.1665 35.3601 39.2137 35.3419 39.2576C35.3236 39.3016 35.2966 39.3414 35.2626 39.3747C35.2286 39.4081 35.1883 39.4342 35.1439 39.4515L31.8291 40.8201Z" fill="#336791"/>
<path d="M38.9374 44.204L44.1702 46.3786C44.4304 46.4868 44.7229 46.4871 44.9834 46.3796C45.2439 46.2721 45.4509 46.0655 45.5591 45.8052C45.6672 45.545 45.6676 45.2525 45.56 44.992C45.4525 44.7316 45.2459 44.5245 44.9857 44.4163L39.7529 42.2417C39.4927 42.1336 39.2001 42.1332 38.9397 42.2408C38.6792 42.3483 38.4721 42.5549 38.364 42.8151C38.2558 43.0753 38.2555 43.3679 38.363 43.6283C38.4706 43.8888 38.6772 44.0959 38.9374 44.204Z" fill="#336791"/>
<path d="M59.8964 36.0387C60.329 34.9979 60.3303 33.8278 59.9002 32.7859C59.47 31.7441 58.6436 30.9157 57.6028 30.4832L34.0552 20.6974C33.0143 20.2648 31.8443 20.2635 30.8024 20.6936C29.7605 21.1237 28.9322 21.9501 28.4996 22.991L20.6166 41.9599C20.1841 43.0007 20.1827 44.1708 20.6129 45.2127C21.043 46.2546 21.8694 47.0829 22.9103 47.5154L46.4578 57.3012C47.4987 57.7338 48.6688 57.7352 49.7106 57.305C50.7525 56.8749 51.5808 56.0485 52.0134 55.0076L59.8964 36.0387ZM43.0512 26.7371C43.3982 26.8813 43.6736 27.1574 43.817 27.5047C43.9604 27.852 43.9599 28.242 43.8158 28.5889C43.6716 28.9359 43.3955 29.2114 43.0482 29.3547C42.7009 29.4981 42.3109 29.4977 41.9639 29.3535C41.6169 29.2093 41.3415 28.9332 41.1981 28.5859C41.0547 28.2386 41.0552 27.8486 41.1994 27.5016C41.3435 27.1547 41.6197 26.8792 41.9669 26.7358C42.3142 26.5924 42.7043 26.5929 43.0512 26.7371ZM38.4725 24.8343C38.8195 24.9785 39.0949 25.2546 39.2383 25.6019C39.3817 25.9492 39.3812 26.3392 39.2371 26.6861C39.0929 27.0331 38.8168 27.3086 38.4695 27.4519C38.1222 27.5953 37.7322 27.5949 37.3852 27.4507C37.0383 27.3065 36.7628 27.0304 36.6194 26.6831C36.476 26.3358 36.4765 25.9458 36.6207 25.5988C36.7649 25.2519 37.041 24.9764 37.3883 24.833C37.7355 24.6897 38.1256 24.6901 38.4725 24.8343ZM33.8938 22.9315C34.2408 23.0757 34.5162 23.3518 34.6596 23.6991C34.803 24.0464 34.8026 24.4364 34.6584 24.7834C34.5142 25.1303 34.2381 25.4058 33.8908 25.5492C33.5435 25.6925 33.1535 25.6921 32.8065 25.5479C32.4596 25.4037 32.1841 25.1276 32.0407 24.7803C31.8973 24.433 31.8978 24.043 32.042 23.696C32.1862 23.3491 32.4623 23.0736 32.8096 22.9302C33.1568 22.7869 33.5469 22.7873 33.8938 22.9315ZM49.397 53.9203C49.2528 54.2673 48.9767 54.5427 48.6294 54.6861C48.2821 54.8295 47.8921 54.829 47.5451 54.6848L23.9976 44.899C23.6506 44.7549 23.3752 44.4787 23.2318 44.1315C23.0884 43.7842 23.0889 43.3941 23.233 43.0472L29.8928 27.0218C29.9289 26.935 29.9979 26.8662 30.0847 26.8303C30.1715 26.7945 30.269 26.7946 30.3558 26.8306L55.8656 37.4319C55.9524 37.468 56.0213 37.537 56.0571 37.6238C56.0929 37.7106 56.0928 37.8081 56.0568 37.8949L49.397 53.9203Z" fill="#336791"/>
</g>
</g>
<defs>
<filter id="filter0_d_3622_23073" x="-6.74341" y="-4" width="94.4421" height="94.4434" filterUnits="userSpaceOnUse" color-interpolation-filters="sRGB">
<feFlood flood-opacity="0" result="BackgroundImageFix"/>
<feColorMatrix in="SourceAlpha" type="matrix" values="0 0 0 0 0 0 0 0 0 0 0 0 0 0 0 0 0 0 127 0" result="hardAlpha"/>
<feOffset dy="4"/>
<feGaussianBlur stdDeviation="4"/>
<feComposite in2="hardAlpha" operator="out"/>
<feColorMatrix type="matrix" values="0 0 0 0 0.556863 0 0 0 0 0.552941 0 0 0 0 0.815686 0 0 0 0.16 0"/>
<feBlend mode="normal" in2="BackgroundImageFix" result="effect1_dropShadow_3622_23073"/>
<feBlend mode="normal" in="SourceGraphic" in2="effect1_dropShadow_3622_23073" result="shape"/>
</filter>
<clipPath id="clip0_3622_23073">
<rect width="34" height="34" fill="white" transform="translate(31.082 16.7773) rotate(22.5666)"/>
</clipPath>
</defs>
</svg>
