<svg width="81" height="84" viewBox="0 0 81 84" fill="none" xmlns="http://www.w3.org/2000/svg">
<g filter="url(#filter0_d_3632_24861)">
<rect x="1.25659" y="15.3398" width="64.9405" height="64.9405" rx="32.4702" transform="rotate(-13.6627 1.25659 15.3398)" fill="white"/>
<g clip-path="url(#clip0_3632_24861)">
<path d="M42.528 23.127C45.4309 23.4911 48.1868 24.6129 50.5187 26.3797C52.8506 28.1464 54.6764 30.4959 55.8125 33.192C56.9486 35.888 57.355 38.8356 56.9908 41.7385C56.6267 44.6413 55.5048 47.3972 53.738 49.7291C51.9712 52.061 49.6217 53.8867 46.9257 55.0228C44.2297 56.1589 41.2821 56.5653 38.3792 56.2011C35.4763 55.8369 32.7204 54.7151 30.3886 52.9482C28.0567 51.1814 26.231 48.8319 25.0949 46.1358L24.8929 45.635C23.8612 42.9463 23.5437 40.0361 23.9715 37.1882C24.3993 34.3403 25.5577 31.6518 27.3339 29.3849C29.11 27.118 31.4432 25.35 34.1061 24.2532C36.7689 23.1565 39.6705 22.7685 42.528 23.127ZM40.2883 33.5117C40.0696 33.5226 39.8552 33.5764 39.6573 33.6701C39.4595 33.7639 39.282 33.8957 39.1351 34.058C38.9882 34.2204 38.8747 34.4101 38.8011 34.6163C38.7276 34.8225 38.6954 35.0412 38.7063 35.2599L39.1943 45.0016C39.2164 45.4432 39.4129 45.858 39.7408 46.1546C40.0686 46.4513 40.5009 46.6056 40.9425 46.5835C41.3841 46.5615 41.7989 46.3649 42.0955 46.0371C42.3922 45.7092 42.5465 45.277 42.5244 44.8354L42.0365 35.0937C42.0256 34.875 41.9718 34.6606 41.878 34.4627C41.7843 34.2648 41.6525 34.0874 41.4901 33.9405C41.3278 33.7936 41.1381 33.6801 40.9319 33.6065C40.7257 33.5329 40.507 33.5007 40.2883 33.5117ZM34.7355 38.0817C34.3261 37.9151 33.8674 37.918 33.4601 38.0896C33.0529 38.2612 32.7305 38.5875 32.5638 38.9968L31.2308 42.2715C31.0643 42.6808 31.0671 43.1396 31.2387 43.5468C31.4103 43.9541 31.7367 44.2765 32.146 44.4432L35.4206 45.7762C35.83 45.9427 36.2887 45.9399 36.696 45.7683C37.1032 45.5966 37.4256 45.2703 37.5923 44.861L37.659 44.6629C37.7637 44.2708 37.7217 43.854 37.5409 43.4906C37.3602 43.1272 37.053 42.8423 36.6772 42.6893L34.9475 41.9839L35.6507 40.2534C35.8172 39.844 35.8144 39.3853 35.6428 38.978C35.4711 38.5708 35.1448 38.2484 34.7355 38.0817ZM45.4866 33.5511C45.0772 33.3846 44.6185 33.3874 44.2112 33.5591C43.804 33.7307 43.4815 34.057 43.3149 34.4663L43.2482 34.6644C43.1435 35.0565 43.1855 35.4733 43.3662 35.8367C43.547 36.2001 43.8541 36.485 44.23 36.638L45.9597 37.3434L45.2565 39.0739C45.0988 39.4815 45.1075 39.9347 45.2807 40.3359C45.4539 40.7371 45.7777 41.0543 46.1825 41.219C46.5873 41.3838 47.0405 41.383 47.4447 41.2168C47.8489 41.0506 48.1716 40.7323 48.3434 40.3305L49.6764 37.0558C49.8429 36.6465 49.8401 36.1877 49.6685 35.7805C49.4968 35.3732 49.1705 35.0508 48.7612 34.8841L45.4866 33.5511Z" fill="#252F3E"/>
</g>
</g>
<defs>
<filter id="filter0_d_3632_24861" x="-6.74341" y="-4" width="94.4421" height="94.4434" filterUnits="userSpaceOnUse" color-interpolation-filters="sRGB">
<feFlood flood-opacity="0" result="BackgroundImageFix"/>
<feColorMatrix in="SourceAlpha" type="matrix" values="0 0 0 0 0 0 0 0 0 0 0 0 0 0 0 0 0 0 127 0" result="hardAlpha"/>
<feOffset dy="4"/>
<feGaussianBlur stdDeviation="4"/>
<feComposite in2="hardAlpha" operator="out"/>
<feColorMatrix type="matrix" values="0 0 0 0 0.556863 0 0 0 0 0.552941 0 0 0 0 0.815686 0 0 0 0.16 0"/>
<feBlend mode="normal" in2="BackgroundImageFix" result="effect1_dropShadow_3632_24861"/>
<feBlend mode="normal" in="SourceGraphic" in2="effect1_dropShadow_3632_24861" result="shape"/>
</filter>
<clipPath id="clip0_3632_24861">
<rect width="40" height="40" fill="white" transform="translate(14.2566 29) rotate(-22.8507)"/>
</clipPath>
</defs>
</svg>
