<svg width="81" height="84" viewBox="0 0 81 84" fill="none" xmlns="http://www.w3.org/2000/svg">
<g filter="url(#filter0_d_3622_21483)">
<rect x="1.25671" y="15.3398" width="64.9405" height="64.9405" rx="32.4702" transform="rotate(-13.6627 1.25671 15.3398)" fill="white"/>
<g clip-path="url(#clip0_3622_21483)">
<path fill-rule="evenodd" clip-rule="evenodd" d="M55.6976 34.906L54.8061 37.3097L56.7985 38.0486C57.7417 38.3984 58.2228 39.4465 57.873 40.3897C57.5232 41.3329 56.475 41.8139 55.5319 41.4641L53.5395 40.7252L51.4519 46.3541L53.4443 47.093C54.3875 47.4428 54.8686 48.491 54.5188 49.4342C54.169 50.3773 53.1208 50.8584 52.1777 50.5086L50.1853 49.7697L49.2938 52.1735C48.5554 54.1645 46.3426 55.1801 44.3515 54.4417L41.9479 53.5503L41.209 55.5427C40.8592 56.4858 39.8111 56.9669 38.8679 56.6171C37.9247 56.2673 37.4437 55.2191 37.7934 54.276L38.5323 52.2836L32.9031 50.196L32.1643 52.1884C31.8145 53.1315 30.7663 53.6126 29.8231 53.2628C28.88 52.913 28.3989 51.8648 28.7487 50.9217L29.4876 48.9293L27.084 48.0379C25.0928 47.2995 24.0773 45.0867 24.8157 43.0956L25.7072 40.6918L23.7148 39.9529C22.7716 39.6031 22.2906 38.555 22.6404 37.6118C22.9902 36.6686 24.0383 36.1876 24.9815 36.5374L26.9739 37.2763L29.0614 31.6474L27.069 30.9085C26.1258 30.5587 25.6448 29.5105 25.9946 28.5674C26.3444 27.6242 27.3925 27.1432 28.3357 27.4929L30.3281 28.2318L31.2195 25.8281C31.958 23.8369 34.1707 22.8214 36.1619 23.5598L38.5655 24.4512L39.3044 22.4588C39.6542 21.5157 40.7023 21.0346 41.6455 21.3844C42.5886 21.7342 43.0697 22.7823 42.7199 23.7255L41.981 25.7179L47.6102 27.8055L48.3491 25.8131C48.6989 24.87 49.747 24.3889 50.6902 24.7387C51.6334 25.0885 52.1144 26.1366 51.7646 27.0798L51.0257 29.0722L53.4294 29.9636C55.4204 30.702 56.436 32.9148 55.6976 34.906ZM40.5736 32.9124C41.6432 31.2331 44.2338 32.1789 43.9666 34.1539L43.9365 34.3764C43.6655 36.3797 44.6078 38.3217 46.3016 39.3147C48.0641 40.3479 47.0545 43.0701 45.0445 42.7043C43.1129 42.3527 41.1322 43.2106 40.0314 44.9063L39.9092 45.0946C38.8239 46.7663 36.2431 45.7942 36.5271 43.8236L36.5545 43.6332C36.8433 41.6289 35.9067 39.6775 34.2104 38.6831C32.4509 37.6516 33.4587 34.934 35.4653 35.2993C37.3998 35.6514 39.3823 34.7825 40.4703 33.0745L40.5736 32.9124Z" fill="url(#paint0_linear_3622_21483)"/>
</g>
</g>
<defs>
<filter id="filter0_d_3622_21483" x="-6.74329" y="-4" width="94.4421" height="94.4434" filterUnits="userSpaceOnUse" color-interpolation-filters="sRGB">
<feFlood flood-opacity="0" result="BackgroundImageFix"/>
<feColorMatrix in="SourceAlpha" type="matrix" values="0 0 0 0 0 0 0 0 0 0 0 0 0 0 0 0 0 0 127 0" result="hardAlpha"/>
<feOffset dy="4"/>
<feGaussianBlur stdDeviation="4"/>
<feComposite in2="hardAlpha" operator="out"/>
<feColorMatrix type="matrix" values="0 0 0 0 0.556863 0 0 0 0 0.552941 0 0 0 0 0.815686 0 0 0 0.16 0"/>
<feBlend mode="normal" in2="BackgroundImageFix" result="effect1_dropShadow_3622_21483"/>
<feBlend mode="normal" in="SourceGraphic" in2="effect1_dropShadow_3622_21483" result="shape"/>
</filter>
<linearGradient id="paint0_linear_3622_21483" x1="50.1752" y1="60.8183" x2="20.2997" y2="25.5825" gradientUnits="userSpaceOnUse">
<stop stop-color="#19599A"/>
<stop offset="1" stop-color="#3FB6D3"/>
</linearGradient>
<clipPath id="clip0_3622_21483">
<rect width="34" height="34" fill="white" transform="translate(30.2286 17.1504) rotate(20.3477)"/>
</clipPath>
</defs>
</svg>
