<svg width="81" height="84" viewBox="0 0 81 84" fill="none" xmlns="http://www.w3.org/2000/svg">
<g filter="url(#filter0_d_3622_23043)">
<rect x="1.25659" y="15.3398" width="64.9405" height="64.9405" rx="32.4702" transform="rotate(-13.6627 1.25659 15.3398)" fill="white"/>
<g clip-path="url(#clip0_3622_23043)">
<path fill-rule="evenodd" clip-rule="evenodd" d="M47.4265 22.5225L28.6116 25.3164L22.2317 42.5038L34.6668 56.8974L53.4817 54.1036L59.8615 36.9161L47.4265 22.5225ZM44.5265 30.335L35.4933 31.6433L41.5385 38.385L50.5183 37.2204L44.5265 30.335ZM30.7129 41.2075L33.6401 33.3216L39.612 39.9828L36.632 48.0109L30.7129 41.2075ZM47.9004 47.5874L38.9764 48.8793L41.9558 40.8528L50.8276 39.7015L47.9004 47.5874Z" fill="black"/>
</g>
</g>
<defs>
<filter id="filter0_d_3622_23043" x="-6.74341" y="-4" width="94.4421" height="94.4434" filterUnits="userSpaceOnUse" color-interpolation-filters="sRGB">
<feFlood flood-opacity="0" result="BackgroundImageFix"/>
<feColorMatrix in="SourceAlpha" type="matrix" values="0 0 0 0 0 0 0 0 0 0 0 0 0 0 0 0 0 0 127 0" result="hardAlpha"/>
<feOffset dy="4"/>
<feGaussianBlur stdDeviation="4"/>
<feComposite in2="hardAlpha" operator="out"/>
<feColorMatrix type="matrix" values="0 0 0 0 0.556863 0 0 0 0 0.552941 0 0 0 0 0.815686 0 0 0 0.16 0"/>
<feBlend mode="normal" in2="BackgroundImageFix" result="effect1_dropShadow_3622_23043"/>
<feBlend mode="normal" in="SourceGraphic" in2="effect1_dropShadow_3622_23043" result="shape"/>
</filter>
<clipPath id="clip0_3622_23043">
<rect width="40" height="40" fill="white" transform="translate(29.2566 14) rotate(20.3645)"/>
</clipPath>
</defs>
</svg>
