<svg width="81" height="84" viewBox="0 0 81 84" fill="none" xmlns="http://www.w3.org/2000/svg">
<g filter="url(#filter0_d_3622_21446)">
<rect x="1.25659" y="15.3398" width="64.9405" height="64.9405" rx="32.4702" transform="rotate(-13.6627 1.25659 15.3398)" fill="white"/>
<path opacity="0.4438" d="M51.8909 58.4975C51.8909 59.7157 46.7827 60.7274 40.4591 60.7274C34.1562 60.7274 29.0273 59.7363 29.0273 58.4975C29.0273 57.2793 34.1356 56.2676 40.4591 56.2676C46.7827 56.2882 51.8909 57.2793 51.8909 58.4975Z" fill="url(#paint0_radial_3622_21446)"/>
<g clip-path="url(#clip0_3622_21446)">
<path fill-rule="evenodd" clip-rule="evenodd" d="M52.1524 24.3223C52.6874 24.3223 53.1211 24.756 53.1211 25.291V26.9107C56.3203 26.9618 58.9336 29.4624 58.9336 32.7181C58.9336 33.526 58.8798 34.469 58.8204 35.2671C58.7053 36.8141 57.5523 38.1105 55.9629 38.3013C54.9692 38.4207 53.6485 38.5306 52.1524 38.5306C50.6563 38.5306 49.3356 38.4207 48.3418 38.3013C46.7524 38.1105 45.5995 36.8141 45.4844 35.2671C45.425 34.469 45.3711 33.526 45.3711 32.7181C45.3711 29.4624 47.9844 26.9618 51.1836 26.9107V25.291C51.1836 24.756 51.6174 24.3223 52.1524 24.3223ZM50.8607 32.3952C50.8607 31.8602 50.427 31.4264 49.892 31.4264C49.357 31.4264 48.9232 31.8602 48.9232 32.3952V33.041C48.9232 33.576 49.357 34.0098 49.892 34.0098C50.427 34.0098 50.8607 33.576 50.8607 33.041V32.3952ZM54.4128 31.4264C54.9478 31.4264 55.3815 31.8602 55.3815 32.3952V33.041C55.3815 33.576 54.9478 34.0098 54.4128 34.0098C53.8778 34.0098 53.444 33.576 53.444 33.041V32.3952C53.444 31.8602 53.8778 31.4264 54.4128 31.4264ZM44.3156 29.115C43.7535 30.1801 43.4336 31.4011 43.4336 32.7181C43.4336 33.5976 43.4916 34.5965 43.5522 35.4109C43.7209 37.6775 45.3279 39.6509 47.6315 40.1451V41.1139C47.6315 45.2158 44.3063 48.541 40.2045 48.541C36.1026 48.541 32.7774 45.2158 32.7774 41.1139V35.3014C32.7774 31.1996 36.1026 27.8743 40.2045 27.8743C41.7248 27.8743 43.1384 28.3312 44.3156 29.115ZM31.002 41.2261C31.0621 46.2572 35.1592 50.3171 40.2045 50.3171C45.2522 50.3171 49.3508 46.2533 49.407 41.2189C50.0311 41.2424 50.5527 41.3639 50.9363 41.4898C51.5273 41.6838 51.8433 42.2576 51.8041 42.836C51.4482 48.0867 47.4016 52.324 42.2373 52.9751C42.2148 53.1404 42.1903 53.3088 42.164 53.4815C42.0711 54.0904 41.6118 54.6078 40.9491 54.653C40.7428 54.6671 40.4959 54.6765 40.2048 54.6765C39.9136 54.6765 39.6668 54.6671 39.4605 54.653C38.7978 54.6078 38.3381 54.0903 38.2467 53.4805C38.221 53.3089 38.1972 53.141 38.1751 52.9755C33.0319 52.3286 28.9964 48.1248 28.6099 42.9048C28.5635 42.2789 28.9295 41.6809 29.5545 41.4919C29.9343 41.3771 30.4363 41.2618 31.002 41.2261Z" fill="#E0234E"/>
</g>
</g>
<defs>
<filter id="filter0_d_3622_21446" x="-6.74341" y="-4" width="94.4421" height="94.4434" filterUnits="userSpaceOnUse" color-interpolation-filters="sRGB">
<feFlood flood-opacity="0" result="BackgroundImageFix"/>
<feColorMatrix in="SourceAlpha" type="matrix" values="0 0 0 0 0 0 0 0 0 0 0 0 0 0 0 0 0 0 127 0" result="hardAlpha"/>
<feOffset dy="4"/>
<feGaussianBlur stdDeviation="4"/>
<feComposite in2="hardAlpha" operator="out"/>
<feColorMatrix type="matrix" values="0 0 0 0 0.556863 0 0 0 0 0.552941 0 0 0 0 0.815686 0 0 0 0.16 0"/>
<feBlend mode="normal" in2="BackgroundImageFix" result="effect1_dropShadow_3622_21446"/>
<feBlend mode="normal" in="SourceGraphic" in2="effect1_dropShadow_3622_21446" result="shape"/>
</filter>
<radialGradient id="paint0_radial_3622_21446" cx="0" cy="0" r="1" gradientUnits="userSpaceOnUse" gradientTransform="translate(40.4591 58.4974) rotate(-90) scale(2.22046 9.73864)">
<stop stop-color="#B8B8B8" stop-opacity="0.498"/>
<stop offset="1" stop-color="#7F7F7F" stop-opacity="0"/>
</radialGradient>
<clipPath id="clip0_3622_21446">
<rect width="31" height="31" fill="white" transform="translate(28.2566 24)"/>
</clipPath>
</defs>
</svg>
