<svg width="40" height="40" viewBox="0 0 40 40" fill="none" xmlns="http://www.w3.org/2000/svg">
<path d="M11.145 13.2324C12.0053 13.1813 12.8681 13.2651 13.7026 13.4795C14.2789 13.6823 14.8056 14.0056 15.2466 14.4287C15.6848 14.8492 16.0269 15.3586 16.2534 15.9219C16.3814 16.4342 16.3609 16.9186 16.1245 17.3496C15.8868 17.7829 15.3898 18.2361 14.4194 18.6055C14.4175 18.6038 14.4155 18.602 14.4146 18.5996C14.4131 18.5959 14.4133 18.5916 14.4146 18.5879C14.4151 18.5865 14.4157 18.5852 14.4165 18.584C15.0912 18.2938 15.5887 17.9373 15.8794 17.5C16.1935 17.0273 16.2345 16.5109 16.0728 16.0254L16.0659 16.0039L16.0562 15.9834C15.8321 15.4694 15.4981 15.0105 15.0776 14.6396C14.6571 14.2689 14.1604 13.9949 13.6226 13.8369L13.5972 13.8291L13.5718 13.8252L13.269 13.7744C12.6614 13.6855 12.0457 13.6633 11.4331 13.708L11.144 13.7344C9.91109 13.8273 8.69165 14.0524 7.50635 14.4043L7.48877 14.4092L7.47314 14.415C5.82852 15.031 4.35815 16.0384 3.19092 17.3506C2.58841 17.9446 2.12566 18.6656 1.83838 19.4619C1.54703 20.2693 1.44361 21.1327 1.53467 21.9863L1.53662 22.0039C1.57919 22.3024 1.6364 22.5987 1.70752 22.8916L1.78271 23.1836C1.86491 23.5379 1.98835 23.8816 2.15088 24.207L2.15674 24.2178C2.65593 25.1574 3.33997 25.9864 4.16748 26.6553L4.16943 26.6572C4.994 27.3169 5.97117 27.759 7.01123 27.9424L7.01416 27.9434C7.90698 28.0954 8.81338 28.1529 9.71826 28.1162L9.71729 28.1152C10.6237 28.0923 11.5269 28.0014 12.4194 27.8418L12.4419 27.8379L12.4634 27.832L13.0122 27.6816C13.5561 27.5433 14.0486 27.2506 14.4292 26.8379C14.8118 26.4229 15.0649 25.9054 15.1577 25.3486L15.1626 25.3193L15.1646 25.2891C15.1881 24.7582 14.9803 24.2689 14.5464 23.9102C14.14 23.5742 13.5662 23.3766 12.8667 23.3076C12.8518 23.302 12.8382 23.294 12.8286 23.2812C12.8169 23.2654 12.8106 23.2455 12.812 23.2256C12.8127 23.2157 12.8158 23.2061 12.8198 23.1973L12.8364 23.1729C12.8457 23.1635 12.8572 23.1574 12.8696 23.1533C13.8861 23.214 14.518 23.5231 14.895 23.8984C15.2736 24.2754 15.4434 24.7668 15.4468 25.2842C15.4034 25.9328 15.1667 26.5538 14.7651 27.0654C14.3645 27.5757 13.8196 27.9528 13.2017 28.1494L12.4634 28.3105C11.5495 28.5 10.6244 28.6303 9.69385 28.7012L9.68506 28.7021C8.75037 28.79 7.80925 28.7902 6.87451 28.7031C5.69883 28.5463 4.5823 28.0927 3.63135 27.3838H3.63232C2.81497 26.7687 2.11388 26.0146 1.56006 25.1572L1.33154 24.7832C1.16441 24.4756 1.02182 24.1553 0.905762 23.8252C0.767581 23.3417 0.657988 22.8506 0.575684 22.3545C0.447157 21.5458 0.483986 20.7196 0.685059 19.9258C0.886145 19.132 1.24653 18.3873 1.74463 17.7373H1.74561L1.75049 17.7295C3.13174 15.8526 5.06575 14.4551 7.28076 13.7324C8.54461 13.441 9.83396 13.2741 11.1304 13.2334L11.145 13.2324Z" fill="#FC7E13" stroke="#1E274F"/>
<path d="M9.96631 18.8652L9.99072 18.8672H11.5103C11.7241 18.895 11.9357 18.9385 12.1431 18.998L12.1606 19.0029L12.1772 19.0059C12.1809 19.0066 12.1846 19.0093 12.187 19.0127L12.188 19.0137C12.1886 19.0147 12.1876 19.0164 12.188 19.0176C12.187 19.019 12.1875 19.0214 12.186 19.0225L12.1851 19.0234C12.1816 19.0256 12.1775 19.0261 12.1733 19.0254L12.1479 19.0215C11.9322 18.9925 11.7144 18.9855 11.4976 19L11.2817 19.0215C11.0314 19.0501 10.7849 19.1062 10.5894 19.1465C10.3753 19.1906 10.2164 19.2168 10.0815 19.2168H10.0464L10.0112 19.2217C9.27085 19.3268 8.55284 19.5529 7.88525 19.8896C7.57284 19.9967 7.29794 20.1928 7.09619 20.4551C6.88399 20.731 6.76247 21.0662 6.74854 21.4141C6.72272 21.6859 6.76999 21.9598 6.88721 22.207V22.208C7.01033 22.4672 7.20476 22.6864 7.44775 22.8398V22.8389C8.01559 23.2042 8.67341 23.4029 9.34814 23.415V23.416L10.8315 23.5156L10.8911 23.5205L10.9497 23.5098C10.961 23.5079 10.9731 23.5077 10.9849 23.5107V23.5117L11.0171 23.5283L11.0386 23.5576C11.0435 23.5684 11.0463 23.5798 11.0464 23.5918C11.0464 23.6035 11.0437 23.6156 11.0386 23.627C11.0337 23.6375 11.0265 23.6472 11.0171 23.6553C11.0074 23.6634 10.9965 23.6697 10.9849 23.6729C10.9739 23.6758 10.9616 23.676 10.9487 23.6738L10.8872 23.6641L10.8247 23.6689L9.37451 23.7852L9.36084 23.7861L9.34717 23.7881C8.40546 23.917 7.4495 23.6949 6.66162 23.1641C6.3803 22.9559 6.15528 22.6812 6.00732 22.3643C5.85919 22.0468 5.79256 21.6972 5.81396 21.3477L5.81494 21.3369V21.3252C5.82109 20.9375 5.92761 20.5581 6.12354 20.2236C6.31739 19.8927 6.59205 19.6164 6.92236 19.4219C7.86455 18.9548 8.91954 18.7624 9.96631 18.8652Z" fill="#1E274F" stroke="#1E274F"/>
<path d="M11.1318 6.70801L11.1943 6.74121L11.2637 6.75586C11.7446 6.85597 12.2173 6.99197 12.6777 7.16309C12.8627 7.24691 13.041 7.34455 13.2119 7.4541L13.2266 7.46289L13.2402 7.4707C13.4026 7.56043 13.5554 7.6664 13.6963 7.78711C14.0727 8.13397 14.4219 8.5093 14.7402 8.91016L14.7842 8.96484L14.8408 9.00586C14.8443 9.00836 14.8469 9.01243 14.8477 9.0166L14.8467 9.01953C14.8454 9.02016 14.8442 9.02219 14.8428 9.02246C14.8386 9.02311 14.8345 9.02188 14.8311 9.01953L14.7705 8.97852L14.7021 8.95703L14.3213 8.84668C14.1951 8.81304 14.0712 8.78148 13.9551 8.75098C13.7139 8.68761 13.4879 8.62328 13.2676 8.53516L13.2656 8.53418L13.0166 8.42285C12.9351 8.38211 12.855 8.33784 12.7773 8.29004L12.7725 8.28711L12.5391 8.13477C12.4637 8.08129 12.3903 8.02503 12.3193 7.96582L12.3105 7.95801L12.3008 7.95117L12.0098 7.72266C11.7226 7.4889 11.4479 7.24011 11.1855 6.97852L11.123 6.91699L11.0439 6.87988L11.0166 6.8584C11.009 6.84957 11.0034 6.83937 11 6.82812C10.9967 6.81705 10.9956 6.80552 10.9971 6.79395C10.9986 6.78225 11.0027 6.77066 11.0088 6.76074L11.0146 6.75098L11.0195 6.74121C11.0301 6.72213 11.0484 6.70838 11.0693 6.70215C11.0902 6.69603 11.1126 6.69784 11.1318 6.70801Z" fill="#FC7E13" stroke="#FC7E13"/>
<path d="M22.8003 30.874L22.8628 30.9131L22.9331 30.9326C23.1908 31.0037 23.4501 31.0572 23.687 31.1094C23.8084 31.1361 23.9271 31.1637 24.0444 31.1934L24.396 31.293C24.5634 31.3482 24.7254 31.4184 24.8813 31.501L25.3726 31.8232H25.3735C25.776 32.1133 26.1628 32.4244 26.5317 32.7559L26.5796 32.7988L26.6362 32.8281C26.6544 32.8377 26.6691 32.8539 26.6763 32.874C26.6832 32.8936 26.6815 32.9153 26.6733 32.9346L26.6587 32.9561C26.6523 32.9621 26.6448 32.9669 26.6372 32.9697H26.6362C26.628 32.9728 26.6184 32.9731 26.6089 32.9727C26.6009 32.9722 26.5925 32.9716 26.5845 32.9678L26.5171 32.9346L26.4429 32.9229L26.0796 32.8584C25.7188 32.7849 25.3634 32.6857 25.0161 32.5625L24.9956 32.5557L24.9751 32.5498L24.7114 32.4658C24.6253 32.4332 24.5409 32.3962 24.4585 32.3545L24.4546 32.3525C24.3284 32.2899 24.2078 32.2168 24.0942 32.1338L23.9839 32.0479C23.5972 31.7238 23.2394 31.3664 22.9155 30.9795L22.8647 30.9189L22.7983 30.877H22.7974L22.7983 30.874H22.8003Z" fill="#FC7E13" stroke="#FC7E13"/>
<path d="M18.7485 7.39258L18.7368 7.33789C18.5856 6.67409 18.4885 5.99891 18.4478 5.31934L18.4468 5.30762L18.4341 5.10352C18.4257 4.90367 18.4297 4.7034 18.4458 4.50391C18.4593 4.38284 18.4856 4.26864 18.5181 4.1084C18.5444 3.97876 18.573 3.8198 18.5796 3.64941C18.6663 3.25271 18.7638 2.88448 18.8521 2.56152C18.9403 2.23857 19.026 1.93731 19.0718 1.71777L19.0796 1.68066L19.0815 1.64355C19.0823 1.6308 19.085 1.61786 19.0903 1.60645L19.1128 1.57617C19.128 1.56183 19.1477 1.55351 19.1685 1.55078C19.1758 1.5522 19.1834 1.55338 19.1899 1.55664C19.2001 1.56168 19.2091 1.56867 19.2163 1.57715V1.57812L19.2329 1.60742C19.2359 1.6174 19.2372 1.62943 19.2358 1.6416L19.228 1.70312L19.2368 1.76465C19.3251 2.42775 19.3789 3.09507 19.3989 3.76367L19.3999 3.77832L19.4009 3.79199C19.4235 4.0514 19.4235 4.31284 19.4009 4.57227L19.3999 4.58203V4.59277C19.3877 4.85517 19.3521 5.11591 19.2944 5.37207L19.2925 5.37891L19.2915 5.38574C19.2212 5.74517 19.1269 6.08135 19.0317 6.40625C18.9392 6.72224 18.8402 7.04616 18.7769 7.34473L18.7642 7.40527L18.7651 7.44824L18.7485 7.44922V7.39258Z" fill="#FC7E13" stroke="#FC7E13"/>
<path fill-rule="evenodd" clip-rule="evenodd" d="M19.4488 32.5838C19.4625 32.5093 19.4595 32.4328 19.4401 32.3596C19.4208 32.2864 19.3856 32.2183 19.3371 32.1603C19.2886 32.1021 19.228 32.0554 19.1595 32.0233C19.091 31.9913 19.0161 31.9746 18.9405 31.9746C18.8648 31.9746 18.7901 31.9913 18.7216 32.0233C18.653 32.0554 18.5923 32.1021 18.5438 32.1603C18.4953 32.2183 18.4603 32.2864 18.441 32.3596C18.4216 32.4328 18.4186 32.5093 18.4321 32.5838C18.3488 33.1338 18.1321 33.8003 17.9988 34.5669C17.9538 34.8539 17.926 35.1434 17.9155 35.4338C17.8986 35.7223 17.8986 36.0118 17.9155 36.3004C17.9725 36.9939 18.0671 37.6838 18.1988 38.3671C18.1988 38.5218 18.2603 38.6701 18.3696 38.7794C18.4791 38.8889 18.6275 38.9504 18.7821 38.9504C18.934 38.9459 19.0781 38.8826 19.184 38.7738C19.2898 38.6648 19.349 38.5189 19.3488 38.3671C19.3488 37.9504 19.6155 37.2336 19.7655 36.3669C19.7655 36.0836 19.8488 35.8004 19.8655 35.5004C19.8906 35.2064 19.8906 34.9109 19.8655 34.6171C19.779 33.9296 19.6398 33.2498 19.4488 32.5838Z" fill="#FC7E13"/>
<path fill-rule="evenodd" clip-rule="evenodd" d="M23.7161 9.04899C24.2994 8.71566 24.7661 8.51566 25.1661 8.23232C25.3574 8.10547 25.5361 7.96034 25.6994 7.79899C25.8684 7.63951 26.0246 7.46674 26.1661 7.28232C26.5057 6.83534 26.8174 6.36779 27.0994 5.88232C27.2062 5.77329 27.2661 5.62667 27.2661 5.47399C27.2661 5.32131 27.2062 5.17471 27.0994 5.06566C26.9884 4.96257 26.8426 4.90527 26.6911 4.90527C26.5396 4.90527 26.3937 4.96257 26.2827 5.06566C25.7994 5.39899 25.3661 5.61566 24.9161 5.93232C24.7247 6.06637 24.5411 6.21106 24.3661 6.36566C24.1982 6.52639 24.0422 6.69907 23.8994 6.88232C23.5994 7.28232 23.3661 7.73232 23.0161 8.29899C22.9234 8.39526 22.8716 8.52369 22.8716 8.65732C22.8716 8.79096 22.9234 8.91939 23.0161 9.01566C23.1051 9.11186 23.2282 9.16924 23.3592 9.17547C23.4901 9.18171 23.6182 9.13629 23.7161 9.04899Z" fill="#FC7E13"/>
<path fill-rule="evenodd" clip-rule="evenodd" d="M13.8988 31.2174C13.3488 31.5674 12.8822 31.784 12.4822 32.084C12.3038 32.2267 12.1367 32.3827 11.9822 32.5507C11.8178 32.7159 11.6673 32.8942 11.5322 33.084C11.1988 33.5674 10.9488 34.0007 10.6488 34.5174C10.5864 34.572 10.5364 34.6392 10.502 34.7147C10.4676 34.79 10.4497 34.872 10.4495 34.9549C10.4492 35.0377 10.4667 35.1197 10.5006 35.1954C10.5345 35.271 10.5842 35.3385 10.6463 35.3935C10.7084 35.4484 10.7815 35.4895 10.8607 35.5139C10.9399 35.5384 11.0234 35.5457 11.1056 35.5354C11.1879 35.525 11.267 35.4972 11.3377 35.4539C11.4083 35.4105 11.469 35.3527 11.5155 35.284C11.9822 34.934 12.3988 34.7007 12.8488 34.3507C13.0217 34.2139 13.1833 34.0634 13.3322 33.9007C13.5147 33.7435 13.677 33.5645 13.8155 33.3674C14.1144 32.8995 14.387 32.4155 14.6322 31.9174C14.6781 31.8692 14.7142 31.8125 14.7382 31.7505C14.7622 31.6884 14.7738 31.6222 14.7723 31.5557C14.7707 31.489 14.7561 31.4235 14.7292 31.3625C14.7023 31.3017 14.6637 31.2467 14.6155 31.2007C14.5674 31.1549 14.5106 31.1187 14.4486 31.0947C14.3865 31.0707 14.3203 31.059 14.2537 31.0607C14.1872 31.0622 14.1216 31.0769 14.0607 31.1037C13.9998 31.1307 13.9448 31.1692 13.8988 31.2174Z" fill="#FC7E13"/>
<path fill-rule="evenodd" clip-rule="evenodd" d="M38.899 17.8668C37.8974 16.1397 36.332 14.8098 34.4657 14.1001C33.7157 13.8604 32.9535 13.6601 32.1824 13.5001C31.6347 13.3771 31.0767 13.3046 30.5157 13.2834H26.6824C26.6067 13.2812 26.5312 13.2942 26.4605 13.3217C26.3897 13.3492 26.3254 13.3906 26.2709 13.4434C26.2165 13.4963 26.1732 13.5595 26.1437 13.6293C26.1142 13.6992 26.099 13.7743 26.099 13.8501C26.1152 13.9902 26.1814 14.1197 26.2855 14.2146C26.3897 14.3096 26.5249 14.3637 26.6657 14.3668L30.499 14.5334C31.0634 14.5864 31.6214 14.6924 32.1657 14.8501C32.7315 14.9943 33.288 15.1724 33.8324 15.3834C35.369 16.0059 36.6417 17.1429 37.4324 18.6001C37.8364 19.2876 38.0924 20.0518 38.1842 20.8439C38.276 21.6359 38.2017 22.4384 37.9657 23.2001C37.7262 23.7788 37.3687 24.3009 36.9157 24.7334C36.4969 25.2121 36.0012 25.6176 35.449 25.9334C34.6344 26.3774 33.758 26.6976 32.849 26.8834C31.9015 27.0516 30.9439 27.1573 29.9824 27.2001C29.2442 27.2418 28.504 27.2418 27.7657 27.2001C26.5157 27.1001 25.5157 26.9501 25.5157 26.9501H25.2824C24.599 26.9501 24.099 26.3334 23.999 25.7001C23.899 25.0668 24.299 24.7168 25.1824 24.6501H28.949C30.0847 24.5986 31.207 24.3854 32.2824 24.0168C33.1445 23.7269 33.8727 23.1349 34.3324 22.3501C34.5114 21.9821 34.5972 21.5758 34.5824 21.1668C34.6085 20.6519 34.535 20.1369 34.3657 19.6501C34.1734 19.1359 33.8485 18.6818 33.424 18.3334C32.9997 17.9853 32.4909 17.7553 31.949 17.6668C30.6324 17.5538 29.3069 17.5929 27.999 17.7834L25.3324 18.0834C23.549 18.0001 22.699 17.4168 22.5324 16.6334C22.485 16.3733 22.491 16.1063 22.55 15.8485C22.609 15.5908 22.7199 15.3477 22.8757 15.1341C23.0317 14.9206 23.2294 14.7409 23.4569 14.6061C23.6844 14.4714 23.9369 14.3843 24.199 14.3501C24.3182 14.3285 24.4259 14.2657 24.5034 14.1728C24.5809 14.0799 24.6234 13.9628 24.6234 13.8418C24.6234 13.7208 24.5809 13.6036 24.5034 13.5107C24.4259 13.4178 24.3182 13.3551 24.199 13.3334C23.7732 13.3619 23.3577 13.4771 22.9779 13.6719C22.5982 13.8667 22.2622 14.137 21.9907 14.4663C21.719 14.7956 21.5177 15.1769 21.3987 15.5868C21.2799 15.9967 21.2459 16.4266 21.299 16.8501C21.5157 18.0001 22.549 19.1501 25.149 19.3668L27.9824 19.1834C29.1615 19.0414 30.3534 19.0414 31.5324 19.1834C31.8179 19.2453 32.0819 19.3809 32.2984 19.5769C32.5149 19.7728 32.676 20.0223 32.7657 20.3001V21.5001C32.4725 21.9033 32.0484 22.1919 31.5657 22.3168C30.6605 22.5779 29.7245 22.7181 28.7824 22.7334H25.2324C22.7324 22.8834 22.0157 24.4834 22.2324 25.9668C22.3289 26.7656 22.711 27.5026 23.3084 28.0418C23.9057 28.5809 24.6779 28.8858 25.4824 28.9001C25.8324 28.9001 26.9824 29.1001 28.2657 29.1668C28.9209 29.2001 29.5774 29.2001 30.2324 29.1668C31.2959 29.1151 32.354 28.9869 33.399 28.7834C34.4677 28.5309 35.4949 28.1268 36.449 27.5834C37.1685 27.1344 37.8102 26.5714 38.349 25.9168C38.9425 25.2913 39.4069 24.5551 39.7157 23.7501C39.9975 22.7668 40.0704 21.7353 39.9297 20.7221C39.789 19.7088 39.438 18.7363 38.899 17.8668Z" fill="#1E274F"/>
</svg>
